<?xml version="1.0" ?><!DOCTYPE svg  PUBLIC '-//W3C//DTD SVG 1.1//EN'  'http://www.w3.org/Graphics/SVG/1.1/DTD/svg11.dtd'><svg height="30" version="1.1" viewBox="0 0 96 96" width="30" xmlns="http://www.w3.org/2000/svg" xmlns:xlink="http://www.w3.org/1999/xlink"><path d="M66 39.996c-9.944 0-14.696 3.688-14.752 3.724-0.592 0.476-1.42 0.58-2.112 0.248-0.692-0.34-1.136-1.036-1.136-1.8v-2.168h-8v40h8v-22c0-5.516 4.488-10 10-10s10 4.484 10 10v22h12v-26c0-7.72-6.28-14.004-14-14.004z" fill="#000000"/><path d="M28 20c0 3.314-2.686 6-6 6s-6-2.686-6-6c0-3.314 2.686-6 6-6s6 2.686 6 6z" fill="#000000"/><path d="M16 40h12v40h-12v-40z" fill="#000000"/><path d="M90 0h-84c-3.308 0-6 2.692-6 6v84c0 3.308 2.692 6 6 6h84c3.308 0 6-2.692 6-6v-84c0-3.308-2.692-6-6-6zM32 82c0 1.1-0.896 2-2 2h-16c-1.104 0-2-0.9-2-2v-44c0-1.1 0.896-2 2-2h16c1.104 0 2 0.9 2 2v44zM22 30c-5.512 0-10-4.484-10-10s4.488-10 10-10 10 4.484 10 10-4.488 10-10 10zM84 82c0 1.1-0.9 2-2 2h-16c-1.1 0-2-0.9-2-2v-24c0-3.308-2.692-6-6-6s-6 2.692-6 6v24c0 1.1-0.9 2-2 2h-12c-1.104 0-2-0.9-2-2v-44c0-1.1 0.896-2 2-2h12c1.1 0 2 0.9 2 2v0.728c2.8-1.276 7.42-2.732 14-2.732 9.92 0 18 8.084 18 18.004v28z" fill="#000000"/></svg>